<mxfile host="65bd71144e">
    <diagram name="Page-1" id="y-Ek2GUciTySldRDRXdH">
        <mxGraphModel dx="1002" dy="616" grid="1" gridSize="10" guides="1" tooltips="1" connect="1" arrows="1" fold="1" page="1" pageScale="1" pageWidth="850" pageHeight="1100" math="0" shadow="0">
            <root>
                <mxCell id="0"/>
                <mxCell id="1" parent="0"/>
                <mxCell id="tWBpmJdCVggVQD41G9TX-1" value="Camera &lt;br&gt;Driver" style="rounded=0;whiteSpace=wrap;html=1;fillColor=#ffe6cc;strokeColor=#d79b00;" parent="1" vertex="1">
                    <mxGeometry x="520" y="370" width="120" height="40" as="geometry"/>
                </mxCell>
                <mxCell id="tWBpmJdCVggVQD41G9TX-14" style="edgeStyle=orthogonalEdgeStyle;rounded=0;orthogonalLoop=1;jettySize=auto;html=1;exitX=0;exitY=0.5;exitDx=0;exitDy=0;startArrow=classic;startFill=1;endArrow=none;endFill=0;entryX=1;entryY=0.3;entryDx=0;entryDy=0;entryPerimeter=0;" parent="1" source="tWBpmJdCVggVQD41G9TX-4" target="tWBpmJdCVggVQD41G9TX-13" edge="1">
                    <mxGeometry relative="1" as="geometry">
                        <mxPoint x="330" y="430" as="targetPoint"/>
                        <Array as="points">
                            <mxPoint x="390" y="390"/>
                            <mxPoint x="390" y="436"/>
                        </Array>
                    </mxGeometry>
                </mxCell>
                <mxCell id="tWBpmJdCVggVQD41G9TX-4" value="Jpeg images" style="rounded=0;whiteSpace=wrap;html=1;" parent="1" vertex="1">
                    <mxGeometry x="425" y="380" width="110" height="20" as="geometry"/>
                </mxCell>
                <mxCell id="tWBpmJdCVggVQD41G9TX-6" value="Motor&lt;br&gt;Driver" style="rounded=0;whiteSpace=wrap;html=1;fillColor=#ffe6cc;strokeColor=#d79b00;" parent="1" vertex="1">
                    <mxGeometry x="520" y="440" width="120" height="40" as="geometry"/>
                </mxCell>
                <mxCell id="tWBpmJdCVggVQD41G9TX-16" style="edgeStyle=orthogonalEdgeStyle;rounded=0;orthogonalLoop=1;jettySize=auto;html=1;entryX=1;entryY=0.5;entryDx=0;entryDy=0;" parent="1" source="tWBpmJdCVggVQD41G9TX-8" target="tWBpmJdCVggVQD41G9TX-13" edge="1">
                    <mxGeometry relative="1" as="geometry"/>
                </mxCell>
                <mxCell id="tWBpmJdCVggVQD41G9TX-8" value="PWM Signal" style="rounded=0;whiteSpace=wrap;html=1;" parent="1" vertex="1">
                    <mxGeometry x="425" y="450" width="110" height="20" as="geometry"/>
                </mxCell>
                <mxCell id="tWBpmJdCVggVQD41G9TX-9" value="Time-of-Flight&lt;br&gt;Driver" style="rounded=0;whiteSpace=wrap;html=1;fillColor=#ffe6cc;strokeColor=#d79b00;" parent="1" vertex="1">
                    <mxGeometry x="520" y="510" width="120" height="40" as="geometry"/>
                </mxCell>
                <mxCell id="tWBpmJdCVggVQD41G9TX-10" value="ROS node" style="rounded=0;whiteSpace=wrap;html=1;" parent="1" vertex="1">
                    <mxGeometry x="630" y="520" width="110" height="20" as="geometry"/>
                </mxCell>
                <mxCell id="tWBpmJdCVggVQD41G9TX-17" style="edgeStyle=orthogonalEdgeStyle;rounded=0;orthogonalLoop=1;jettySize=auto;html=1;startArrow=classic;startFill=1;endArrow=none;endFill=0;entryX=1;entryY=0.7;entryDx=0;entryDy=0;entryPerimeter=0;" parent="1" source="tWBpmJdCVggVQD41G9TX-11" target="tWBpmJdCVggVQD41G9TX-13" edge="1">
                    <mxGeometry relative="1" as="geometry">
                        <mxPoint x="340" y="480" as="targetPoint"/>
                        <Array as="points">
                            <mxPoint x="390" y="530"/>
                            <mxPoint x="390" y="484"/>
                        </Array>
                    </mxGeometry>
                </mxCell>
                <mxCell id="tWBpmJdCVggVQD41G9TX-11" value="float" style="rounded=0;whiteSpace=wrap;html=1;" parent="1" vertex="1">
                    <mxGeometry x="425" y="520" width="110" height="20" as="geometry"/>
                </mxCell>
                <mxCell id="3" style="edgeStyle=none;html=1;exitX=0;exitY=0.5;exitDx=0;exitDy=0;entryX=1;entryY=0.12;entryDx=0;entryDy=0;rounded=0;entryPerimeter=0;" edge="1" parent="1" source="5" target="tWBpmJdCVggVQD41G9TX-13">
                    <mxGeometry relative="1" as="geometry">
                        <mxPoint x="410" y="320" as="sourcePoint"/>
                        <Array as="points">
                            <mxPoint x="350" y="320"/>
                            <mxPoint x="350" y="370"/>
                            <mxPoint x="350" y="414"/>
                        </Array>
                    </mxGeometry>
                </mxCell>
                <mxCell id="10" style="edgeStyle=none;rounded=0;html=1;exitX=1;exitY=0.9;exitDx=0;exitDy=0;exitPerimeter=0;entryX=0;entryY=0.5;entryDx=0;entryDy=0;" edge="1" parent="1" source="tWBpmJdCVggVQD41G9TX-13" target="9">
                    <mxGeometry relative="1" as="geometry">
                        <Array as="points">
                            <mxPoint x="350" y="508"/>
                            <mxPoint x="350" y="560"/>
                            <mxPoint x="350" y="600"/>
                        </Array>
                    </mxGeometry>
                </mxCell>
                <mxCell id="tWBpmJdCVggVQD41G9TX-13" value="Duckiematrix&lt;br&gt;Engine" style="rounded=0;whiteSpace=wrap;html=1;fillColor=#d5e8d4;strokeColor=#82b366;points=[[0,0,0,0,0],[0,0.25,0,0,0],[0,0.5,0,0,0],[0,0.75,0,0,0],[0,1,0,0,0],[0.25,0,0,0,0],[0.25,1,0,0,0],[0.5,0,0,0,0],[0.5,1,0,0,0],[0.75,0,0,0,0],[0.75,1,0,0,0],[1,0.12,0,0,0],[1,0.3,0,0,0],[1,0.5,0,0,0],[1,0.7,0,0,0],[1,0.9,0,0,0]];" parent="1" vertex="1">
                    <mxGeometry x="100" y="400" width="210" height="120" as="geometry"/>
                </mxCell>
                <mxCell id="tWBpmJdCVggVQD41G9TX-3" value="ROS node" style="rounded=0;whiteSpace=wrap;html=1;" parent="1" vertex="1">
                    <mxGeometry x="630" y="380" width="110" height="20" as="geometry"/>
                </mxCell>
                <mxCell id="tWBpmJdCVggVQD41G9TX-7" value="ROS node" style="rounded=0;whiteSpace=wrap;html=1;" parent="1" vertex="1">
                    <mxGeometry x="630" y="450" width="110" height="20" as="geometry"/>
                </mxCell>
                <mxCell id="4" value="LED&lt;br&gt;Driver" style="rounded=0;whiteSpace=wrap;html=1;fillColor=#ffe6cc;strokeColor=#d79b00;" vertex="1" parent="1">
                    <mxGeometry x="520" y="300" width="120" height="40" as="geometry"/>
                </mxCell>
                <mxCell id="5" value="Dictionary" style="rounded=0;whiteSpace=wrap;html=1;" vertex="1" parent="1">
                    <mxGeometry x="425" y="310" width="110" height="20" as="geometry"/>
                </mxCell>
                <mxCell id="6" value="ROS node" style="rounded=0;whiteSpace=wrap;html=1;" vertex="1" parent="1">
                    <mxGeometry x="630" y="310" width="110" height="20" as="geometry"/>
                </mxCell>
                <mxCell id="7" value="Encoders&lt;br&gt;Driver" style="rounded=0;whiteSpace=wrap;html=1;fillColor=#ffe6cc;strokeColor=#d79b00;" vertex="1" parent="1">
                    <mxGeometry x="520" y="580" width="120" height="40" as="geometry"/>
                </mxCell>
                <mxCell id="8" value="ROS node" style="rounded=0;whiteSpace=wrap;html=1;" vertex="1" parent="1">
                    <mxGeometry x="630" y="590" width="110" height="20" as="geometry"/>
                </mxCell>
                <mxCell id="9" value="int" style="rounded=0;whiteSpace=wrap;html=1;" vertex="1" parent="1">
                    <mxGeometry x="425" y="590" width="110" height="20" as="geometry"/>
                </mxCell>
            </root>
        </mxGraphModel>
    </diagram>
</mxfile>